<?xml version="1.0" encoding="UTF-8" standalone="no"?>

<svg
   xmlns:dc="http://purl.org/dc/elements/1.1/"
   xmlns:cc="http://creativecommons.org/ns#"
   xmlns:rdf="http://www.w3.org/1999/02/22-rdf-syntax-ns#"
   xmlns:svg="http://www.w3.org/2000/svg"
   xmlns="http://www.w3.org/2000/svg"
   xmlns:sodipodi="http://sodipodi.sourceforge.net/DTD/sodipodi-0.dtd"
   xmlns:inkscape="http://www.inkscape.org/namespaces/inkscape"
   version="1.1"
   x="0px"
   y="0px"
   viewBox="0 0 1000 1000"
   enable-background="new 0 0 1000 1000"
   xml:space="preserve"
   id="svg2"
   inkscape:version="0.91 r13725"
   sodipodi:docname="rss.svg"><defs
     id="defs50"><marker
       inkscape:stockid="Arrow1Lstart"
       orient="auto"
       refY="0.0"
       refX="0.0"
       id="Arrow1Lstart"
       style="overflow:visible"
       inkscape:isstock="true"><path
         id="path4182"
         d="M 0.0,0.0 L 5.0,-5.0 L -12.5,0.0 L 5.0,5.0 L 0.0,0.0 z "
         style="fill-rule:evenodd;stroke:#000000;stroke-width:1.0pt"
         transform="scale(0.8) translate(12.5,0)" /></marker></defs><sodipodi:namedview
     pagecolor="#ffffff"
     bordercolor="#666666"
     borderopacity="1"
     objecttolerance="10"
     gridtolerance="10"
     guidetolerance="10"
     inkscape:pageopacity="0"
     inkscape:pageshadow="2"
     inkscape:window-width="1815"
     inkscape:window-height="1067"
     id="namedview48"
     showgrid="false"
     inkscape:zoom="0.6675088"
     inkscape:cx="498.2394"
     inkscape:cy="430.41263"
     inkscape:window-x="229"
     inkscape:window-y="88"
     inkscape:window-maximized="0"
     inkscape:current-layer="g10" /><metadata
     id="metadata4"> Svg Vector Icons : http://www.onlinewebfonts.com/icon <rdf:RDF><cc:Work
     rdf:about=""><dc:format>image/svg+xml</dc:format><dc:type
       rdf:resource="http://purl.org/dc/dcmitype/StillImage" /></cc:Work></rdf:RDF></metadata><g
     id="g6"><g
       id="g8"><g
         id="g10"><path
           d="M136.8,736.4C66.9,736.4,10,793.2,10,863.2C10,933.1,66.9,990,136.8,990c69.9,0,126.8-56.9,126.8-126.8C263.6,793.2,206.7,736.4,136.8,736.4z"
           id="path12"
           style="fill-opacity:1;fill:#828282" /><path
           d="M31.1,375.1c-5.5-0.1-10.7,1.8-14.6,5.6c-3.9,3.8-6.1,9-6.1,14.4v162.7c0,10.7,8.4,19.5,19.2,20c214.1,9.8,382.9,178.6,392.6,392.6c0.5,10.7,9.3,19.1,20,19.1h162.7c5.4,0,10.7-2.2,14.4-6.1c3.8-3.9,5.8-9.2,5.6-14.6c-5.2-156-69.1-303-180-413.9C334.1,444.2,187.1,380.3,31.1,375.1z"
           id="path14"
           style="fill:#828282;fill-opacity:1" /><path
           d="M702.9,297.2C522.9,117.2,284.3,15.3,30.8,10c-5.4-0.3-10.6,1.9-14.4,5.7c-3.9,3.8-6,8.9-6,14.3v162.6c0,10.9,8.7,19.8,19.6,20.1C437.3,223,777,562.8,787.2,970.1c0.3,10.9,9.2,19.5,20.1,19.5h162.6c5.4,0,10.6-2.2,14.3-6c3.8-3.9,5.8-9.1,5.7-14.5C984.8,715.7,882.8,477.1,702.9,297.2z"
           id="path16"
           style="fill:#828282;fill-opacity:1" /></g></g><g
       id="g18" /><g
       id="g20" /><g
       id="g22" /><g
       id="g24" /><g
       id="g26" /><g
       id="g28" /><g
       id="g30" /><g
       id="g32" /><g
       id="g34" /><g
       id="g36" /><g
       id="g38" /><g
       id="g40" /><g
       id="g42" /><g
       id="g44" /><g
       id="g46" /></g></svg>